<?xml version="1.0" standalone="no"?>
<!DOCTYPE svg PUBLIC "-//W3C//DTD SVG 20010904//EN"
 "http://www.w3.org/TR/2001/REC-SVG-20010904/DTD/svg10.dtd">
<svg version="1.0" xmlns="http://www.w3.org/2000/svg"
 width="578.000000pt" height="671.000000pt" viewBox="0 0 578.000000 671.000000"
 preserveAspectRatio="xMidYMid meet">

<g transform="translate(0.000000,671.000000) scale(0.100000,-0.100000)"
fill="#000000" stroke="none">
<path d="M2793 5937 c-73 -111 -129 -203 -125 -205 4 -1 63 18 132 42 l124 45
129 -45 c71 -25 131 -44 133 -41 3 2 -247 391 -259 404 -1 1 -62 -89 -134
-200z"/>
<path d="M2635 5356 l-269 -71 -78 -120 c-42 -65 -76 -120 -75 -122 2 -1 159
38 349 87 191 50 355 90 365 90 10 0 173 -40 363 -89 190 -49 346 -88 348 -86
4 4 -145 232 -157 239 -14 9 -549 146 -564 145 -7 -1 -133 -33 -282 -73z"/>
<path d="M2640 4739 c-146 -32 -371 -82 -500 -110 l-235 -51 -77 -116 c-42
-64 -76 -117 -75 -119 2 -1 260 54 575 123 315 68 584 124 596 124 13 0 281
-56 596 -125 315 -69 575 -124 577 -121 2 2 -30 55 -71 118 l-76 114 -513 112
c-281 62 -516 112 -522 111 -5 -1 -129 -28 -275 -60z"/>
<path d="M2140 3904 c-421 -79 -766 -143 -767 -144 -5 0 -152 -224 -150 -227
2 -1 378 67 837 152 459 85 848 155 864 155 17 0 406 -70 864 -156 459 -85
836 -153 839 -151 3 4 -118 200 -136 219 -6 6 -1560 299 -1578 297 -4 -1 -352
-66 -773 -145z"/>
<path d="M1297 3048 c36 -57 70 -108 77 -115 6 -6 357 -73 781 -149 l770 -137
160 27 c88 15 437 78 775 139 l615 112 73 108 c41 60 71 111 68 114 -3 3 -383
-63 -844 -146 l-838 -152 -841 151 c-462 82 -845 150 -851 150 -6 0 18 -46 55
-102z"/>
<path d="M1744 2363 c8 -15 43 -70 78 -122 l64 -94 509 -123 c281 -68 522
-123 536 -124 24 0 1028 235 1034 242 17 21 154 233 151 235 -1 2 -268 -60
-593 -137 l-590 -140 -579 140 c-318 77 -589 142 -602 145 -22 5 -22 5 -8 -22z"/>
<path d="M2216 1639 c4 -8 40 -63 80 -124 l71 -110 274 -68 c151 -37 285 -67
299 -67 14 1 140 29 280 63 l255 62 79 118 c44 64 78 119 75 121 -2 2 -159
-33 -348 -79 l-344 -84 -346 85 c-190 46 -354 87 -365 90 -14 5 -16 3 -10 -7z"/>
<path d="M2783 768 c73 -112 135 -205 139 -208 8 -5 270 392 263 398 -2 3 -60
-15 -128 -39 l-123 -43 -135 47 c-74 26 -137 47 -141 47 -4 0 52 -91 125 -202z"/>
</g>
</svg>
