<svg id="Слой_1" data-name="Слой 1" xmlns="http://www.w3.org/2000/svg" xmlns:xlink="http://www.w3.org/1999/xlink" viewBox="0 0 353.16 595.03"><defs><style>.cls-1{fill:#c4c4c4;}.cls-2{mask:url(#mask);}.cls-3{fill:#e13afb;}.cls-4,.cls-6{fill:none;stroke-width:20px;}.cls-4{stroke-opacity:0.5;stroke:url(#Безымянный_градиент);}.cls-5{fill:#31ecfa;fill-rule:evenodd;}.cls-6{stroke:url(#Безымянный_градиент_2);}</style><mask id="mask" x="-6.68" y="0" width="365.5" height="595.03" maskUnits="userSpaceOnUse"><g transform="translate(-75.64 -37.65)"><g id="mask0"><path class="cls-1" d="M434.46,334.92l-183-279L69,334.92l182.5,280Z"/></g></g></mask><linearGradient id="Безымянный_градиент" x1="204.35" y1="627.6" x2="300.85" y2="68.6" gradientTransform="matrix(1, 0, 0, -1, 0, 681.72)" gradientUnits="userSpaceOnUse"><stop offset="0" stop-color="#2ef0fa"/><stop offset="0.58" stop-color="#7293fa"/><stop offset="1" stop-color="#f12dfb"/></linearGradient><linearGradient id="Безымянный_градиент_2" x1="203.62" y1="627.48" x2="300.12" y2="68.48" xlink:href="#Безымянный_градиент"/></defs><g class="cls-2"><rect class="cls-3" x="137.32" y="556.26" width="75" height="31"/><path class="cls-4" d="M130,225.42l121.5,12,124.5-12m-294.5,81.5,170,28.5,171.5-28m-242-152,70.5,12.5,70.5-12m49,286-118.65-9-120.35,8m289.5-76.5-169.15-29.5L83,364.42m238.5,151-69.15-13c-20.17,4.72-72.87,13.93-76.35,13m75.5-459.48-23,32.5,23,10.5L275,88.42C268.45,78.47,257.08,64.5,251.46,55.92Zm.85,558.5,22.65-32-22.65-11-22.85,9.5C236,590.86,246.69,605.83,252.31,614.42Z" transform="translate(-75.64 -37.65)"/><path class="cls-5" d="M233.21,83.83l18.25-27.91,18.27,27.91-18.27-6.41Z" transform="translate(-75.64 -37.65)"/><path class="cls-6" d="M126,227.42l125.5-27.25L376,227.42m-298.5,80,174-32.25L427,307.92M177,156.42l74.5-19.25,75,19.25m47,285L252.31,470.17,129,440.42m296-76.5L252.31,395.17,77.46,363.92m248,151.5-73.15,17.75L177,514.42m74.5-458.5L233.21,83.83l18.25-6.41,18.27,6.41Zm.85,558.5,18.25-27.91-18.25,6.41L234,586.51Z" transform="translate(-75.64 -37.65)"/></g></svg>